<svg width="25" height="25" viewBox="0 0 25 25" fill="none" xmlns="http://www.w3.org/2000/svg">
<path d="M23.0556 25L14.3056 16.25C13.6111 16.8056 12.8125 17.2454 11.9097 17.5694C11.0069 17.8935 10.0463 18.0556 9.02778 18.0556C6.50463 18.0556 4.36921 17.1817 2.62153 15.434C0.873843 13.6863 0 11.5509 0 9.02778C0 6.50463 0.873843 4.36921 2.62153 2.62153C4.36921 0.873843 6.50463 0 9.02778 0C11.5509 0 13.6863 0.873843 15.434 2.62153C17.1817 4.36921 18.0556 6.50463 18.0556 9.02778C18.0556 10.0463 17.8935 11.0069 17.5694 11.9097C17.2454 12.8125 16.8056 13.6111 16.25 14.3056L25 23.0556L23.0556 25ZM9.02778 15.2778C10.7639 15.2778 12.2396 14.6701 13.4549 13.4549C14.6701 12.2396 15.2778 10.7639 15.2778 9.02778C15.2778 7.29167 14.6701 5.81597 13.4549 4.60069C12.2396 3.38542 10.7639 2.77778 9.02778 2.77778C7.29167 2.77778 5.81597 3.38542 4.60069 4.60069C3.38542 5.81597 2.77778 7.29167 2.77778 9.02778C2.77778 10.7639 3.38542 12.2396 4.60069 13.4549C5.81597 14.6701 7.29167 15.2778 9.02778 15.2778Z" fill="#F9F9F9"/>
</svg>
