<svg width="242" height="58" viewBox="0 0 242 58" fill="none" xmlns="http://www.w3.org/2000/svg">
<path d="M4.42162 18.6H9.88162V43.38H25.2536V48H4.42162V18.6ZM39.0611 43.842C41.4971 43.842 43.5271 43.03 45.1511 41.406L47.9231 44.64C46.9431 45.844 45.6831 46.754 44.1431 47.37C42.6031 47.986 40.8671 48.294 38.9351 48.294C36.4711 48.294 34.3011 47.804 32.4251 46.824C30.5491 45.844 29.0931 44.486 28.0571 42.75C27.0491 40.986 26.5451 38.998 26.5451 36.786C26.5451 34.602 27.0351 32.642 28.0151 30.906C29.0231 29.142 30.3951 27.77 32.1311 26.79C33.8951 25.81 35.8831 25.32 38.0951 25.32C40.1951 25.32 42.0991 25.782 43.8071 26.706C45.5431 27.602 46.9151 28.904 47.9231 30.612C48.9311 32.292 49.4351 34.266 49.4351 36.534L32.2571 39.894C32.7891 41.182 33.6431 42.162 34.8191 42.834C35.9951 43.506 37.4091 43.842 39.0611 43.842ZM38.0951 29.52C36.1631 29.52 34.5951 30.15 33.3911 31.41C32.2151 32.67 31.6271 34.364 31.6271 36.492V36.534L44.3111 34.098C43.9471 32.726 43.2051 31.62 42.0851 30.78C40.9931 29.94 39.6631 29.52 38.0951 29.52ZM66.6171 46.782C66.0011 47.286 65.2451 47.664 64.3491 47.916C63.4811 48.168 62.5571 48.294 61.5771 48.294C59.1131 48.294 57.2091 47.65 55.8651 46.362C54.5211 45.074 53.8491 43.198 53.8491 40.734V20.616H59.0991V25.74H65.1051V29.94H59.0991V40.608C59.0991 41.7 59.3651 42.54 59.8971 43.128C60.4571 43.688 61.2271 43.968 62.2071 43.968C63.3831 43.968 64.3631 43.66 65.1471 43.044L66.6171 46.782ZM72.2165 16.542C73.1965 16.542 74.0085 16.864 74.6525 17.508C75.2965 18.152 75.6185 18.978 75.6185 19.986C75.6185 20.49 75.5485 20.98 75.4085 21.456C75.2965 21.932 75.0585 22.646 74.6945 23.598L72.5105 29.562H69.1085L70.7885 23.094C70.1725 22.87 69.6825 22.492 69.3185 21.96C68.9825 21.4 68.8145 20.742 68.8145 19.986C68.8145 18.978 69.1365 18.152 69.7805 17.508C70.4245 16.864 71.2365 16.542 72.2165 16.542ZM86.5191 48.294C84.6991 48.294 82.9211 48.056 81.1851 47.58C79.4491 47.104 78.0631 46.502 77.0271 45.774L79.0431 41.784C80.0511 42.456 81.2551 43.002 82.6551 43.422C84.0831 43.814 85.4832 44.01 86.8552 44.01C89.9911 44.01 91.5591 43.184 91.5591 41.532C91.5591 40.748 91.1532 40.202 90.3412 39.894C89.5571 39.586 88.2831 39.292 86.5191 39.012C84.6711 38.732 83.1591 38.41 81.9831 38.046C80.8351 37.682 79.8271 37.052 78.9591 36.156C78.1191 35.232 77.6991 33.958 77.6991 32.334C77.6991 30.206 78.5811 28.512 80.3451 27.252C82.1371 25.964 84.5451 25.32 87.5691 25.32C89.1092 25.32 90.6492 25.502 92.1892 25.866C93.7291 26.202 94.9891 26.664 95.9692 27.252L93.9532 31.242C92.0491 30.122 89.9071 29.562 87.5272 29.562C85.9871 29.562 84.8111 29.8 83.9991 30.276C83.2151 30.724 82.8231 31.326 82.8231 32.082C82.8231 32.922 83.2431 33.524 84.0831 33.888C84.9511 34.224 86.2811 34.546 88.0731 34.854C89.8651 35.134 91.3352 35.456 92.4832 35.82C93.6311 36.184 94.6111 36.8 95.4232 37.668C96.2632 38.536 96.6832 39.768 96.6832 41.364C96.6832 43.464 95.7732 45.144 93.9532 46.404C92.1332 47.664 89.6552 48.294 86.5191 48.294ZM132.804 25.908C130.032 24.34 127.148 23.388 124.152 23.052V48H118.692V23.052C115.668 23.388 112.77 24.34 109.998 25.908L108.108 21.708C110.068 20.532 112.168 19.65 114.408 19.062C116.676 18.474 119 18.18 121.38 18.18C123.76 18.18 126.084 18.474 128.352 19.062C130.62 19.65 132.734 20.532 134.694 21.708L132.804 25.908ZM141.936 28.848C143.448 26.496 146.108 25.32 149.916 25.32V30.318C149.468 30.234 149.062 30.192 148.698 30.192C146.654 30.192 145.058 30.794 143.91 31.998C142.762 33.174 142.188 34.882 142.188 37.122V48H136.938V25.572H141.936V28.848ZM175.626 25.572V48H170.628V45.102C169.76 46.166 168.682 46.964 167.394 47.496C166.134 48.028 164.734 48.294 163.194 48.294C161.01 48.294 159.05 47.818 157.314 46.866C155.606 45.914 154.262 44.57 153.282 42.834C152.33 41.098 151.854 39.082 151.854 36.786C151.854 34.49 152.33 32.488 153.282 30.78C154.262 29.044 155.606 27.7 157.314 26.748C159.05 25.796 161.01 25.32 163.194 25.32C164.65 25.32 165.98 25.572 167.184 26.076C168.416 26.58 169.48 27.322 170.376 28.302V25.572H175.626ZM163.782 43.8C165.714 43.8 167.31 43.156 168.57 41.868C169.83 40.58 170.46 38.886 170.46 36.786C170.46 34.686 169.83 32.992 168.57 31.704C167.31 30.416 165.714 29.772 163.782 29.772C161.85 29.772 160.254 30.416 158.994 31.704C157.762 32.992 157.146 34.686 157.146 36.786C157.146 38.886 157.762 40.58 158.994 41.868C160.254 43.156 161.85 43.8 163.782 43.8ZM203.033 25.572L193.415 48H187.997L178.379 25.572H183.839L190.811 42.204L197.993 25.572H203.033ZM215.905 43.842C218.341 43.842 220.371 43.03 221.995 41.406L224.767 44.64C223.787 45.844 222.527 46.754 220.987 47.37C219.447 47.986 217.711 48.294 215.779 48.294C213.315 48.294 211.145 47.804 209.269 46.824C207.393 45.844 205.937 44.486 204.901 42.75C203.893 40.986 203.389 38.998 203.389 36.786C203.389 34.602 203.879 32.642 204.859 30.906C205.867 29.142 207.239 27.77 208.975 26.79C210.739 25.81 212.727 25.32 214.939 25.32C217.039 25.32 218.943 25.782 220.651 26.706C222.387 27.602 223.759 28.904 224.767 30.612C225.775 32.292 226.279 34.266 226.279 36.534L209.101 39.894C209.633 41.182 210.487 42.162 211.663 42.834C212.839 43.506 214.253 43.842 215.905 43.842ZM214.939 29.52C213.007 29.52 211.439 30.15 210.235 31.41C209.059 32.67 208.471 34.364 208.471 36.492V36.534L221.155 34.098C220.791 32.726 220.049 31.62 218.929 30.78C217.837 29.94 216.507 29.52 214.939 29.52ZM238.253 48.294C235.929 48.294 234.109 47.664 232.793 46.404C231.505 45.116 230.861 43.31 230.861 40.986V16.836H236.111V40.608C236.111 42.848 237.161 43.968 239.261 43.968C239.961 43.968 240.591 43.828 241.151 43.548L241.403 47.748C240.423 48.112 239.373 48.294 238.253 48.294Z" fill="#333333"/>
<rect x="5" width="60" height="7" fill="#8F2020"/>
</svg>
